<svg xmlns="http://www.w3.org/2000/svg" viewBox="0 0 1014.47 469.67"><defs><style>.cls-1{fill:#fff;}</style></defs><title>newtubeLogo</title><g id="Layer_2" data-name="Layer 2"><g id="Layer_1-2" data-name="Layer 1"><path class="cls-1" d="M1012.16,231.06c-4-4-8.31-7.9-13.85-10.54-7.4-3.48-11.48-1-15.37,4.93-3.68,5.54-7.26,11.25-11.65,16.18-13.51,15.26-29.62,26.17-50.73,27.49-8.65.54-10.87-2.5-6.15-9.69,11.08-16.68,19.76-34.55,27.52-52.85,4.56-10.71,8.41-21.68,12.19-32.66,3.07-8.88,6.28-17.76,8.14-26.92,2.2-10.91,6.86-21.18,7.43-32.49.34-6.89-1.65-9.12-8.88-9.42-16.78-.74-32.72,4.73-49.24,5.34-2.16.07-4.05.78-4.66,2.94-3.55,12.8-7.67,25.53-10.2,38.53-1.59,8-5,15.23-7.29,22.86-3.41,11.58-8.31,22.83-12.73,34.14-2.47,6.32-5.44,8.75-11.65,9.73s-12.46,2.33-18.14,5.88c-16.21,10.17-20.2,26.11-15.6,42.28,3.55,12.53-3.34,16.31-10,22.29-3,2.74-7.16,3.07-10.37,5.37-4.09,2.94-8.92,5.13-13.2,1.82-4.05-3.11-2.3-8.38-1.76-12.73.91-7.46,3.75-14.42,5.88-21.58,3.55-12,9.19-23,13.61-34.58,3.82-10,9.56-19.55,11.72-29.89,2.57-12.23,7.8-23.24,12.09-34.72,5.2-13.88,11.41-27.39,17-41.17,2.67-6.65.57-9.93-6.25-10-17.46-.14-34.92-.07-52.35,0-5.13,0-9.42,1.65-11.55,6.82-5.07,12.46-10.23,24.89-15.2,37.42-9,22.63-17,45.69-27.09,67.85-10.71,23.51-25.9,44.48-42.65,64.13-4.49,5.3-10.2,9.73-17.56,10.84-9.69,1.52-14.45-3.24-12.6-13,5.88-30.56,20.5-58,31.31-86.79,10-26.48,21.45-52.35,32.15-78.55,2.2-5.4.68-8.75-5.81-8.75-17.73.07-35.46,0-53.19.07-6.08,0-10.23,2.26-12.53,8.81-6.21,17.87-12.8,35.63-20.06,53.09-5.34,12.87-11.11,25.5-16.08,38.5-1.55,4.09-2.16,8.95-4.59,12.26-13.81,18.78-26.71,38.26-46.1,52.35-29.11,21.14-59.91,34.85-97,27.12-12.43-2.57-24.08-13.31-26.75-25.3-3-13.44.47-19.45,11.14-17.83,18.91,2.9,37.39.91,56.1-1.86,23.74-3.48,43.3-14.69,57.75-32.86,15.91-20,24.38-43.26,21.72-69.71a42,42,0,0,0-10-23.47c-15.81-18.95-37.28-25.94-60.59-26.14-42.35-.37-76.05,18-102.4,50.79-21.28,26.48-33,57-39.34,89.8-2.8,14.59-3.24,30,.1,44.48,7.23,31.31,28.4,50.59,59.4,55.72,51.91,8.65,99.69-2.47,141.2-36.24,9.39-7.67,12-7,14.59,4.59,3.58,16,13.41,26.24,28.17,32.39,6.18,2.57,12.83,1.65,19.11,1.89,13.64.51,26.78-1.59,39.28-8.58a144.07,144.07,0,0,0,33.91-26.14c6.32,10.94,10.91,22,22,28,21.61,11.62,44.75,10.57,67,4.83,24.35-6.25,45.46-19.69,62.71-38.47C880,303.3,886.76,303,894.13,306a31.64,31.64,0,0,0,8.85,2.5c18.71,1.79,36.27-3.28,52.52-11.14,24.11-11.65,42.59-30.26,56.7-53.06C1015,239.87,1015.5,234.44,1012.16,231.06ZM473.33,207.28l46.44-43.13c9.35-2,15.7,4.36,12.6,13.75-5.84,17.73-13.31,34.72-33.13,41.84-5.3,1.89-10.54,1.32-14.66,1.82C465.86,221.67,465.09,221.2,473.33,207.28Z"/><path class="cls-1" d="M.47,146.25c-.63-43.2,21.74-67.46,52.94-85.95,23.4-13.87,48.81-23,74.6-31.24S179.8,12.22,205.66,3.73c1.28-.42,2.3-1.62,3.58-2,6.06-1.83,11.18-3.86,16.49,3.48,11.92,16.5,25.3,31.94,38,47.89,3.67,4.6,7.16,2.68,10.44-.1,15.2-12.86,30.71-25.22,48.28-34.82,18.12-9.91,37.2-16.23,58-13.1,12,1.8,20.17,8.54,26.35,20.45,13,25.07,3.93,47.7-4.13,70.67-6.91,19.69-14.85,39-22.6,58.42-7.24,18.12-14.93,36-22.23,54.14-7.7,19.09-15.07,38.31-22.76,57.41-7.49,18.61-15.59,37-22.69,55.74-6.07,16-14.14,31.45-14,49.53.1,10.48,4.48,16.8,13,21.51,9,4.93,9.13,6.6,5.1,15.89-4.44,10.22-8.44,20.64-12.31,31.1-3.28,8.87-6.44,10-15.1,6.29-12.71-5.37-24.51-11.83-34.82-21.23-19.7-18-22.83-40.92-20.93-65.59,1.67-21.67,11.8-40.6,19.47-60.36,7.21-18.58,13.34-37.57,21.2-55.91q9.71-22.63,18.85-45.51c7.48-18.6,14.72-37.3,22-56,6-15.33,11.92-30.7,18.11-46a35.12,35.12,0,0,0,2-6.33c1.29-6.38,3.57-13.44-2.86-17.87s-13.91-1.91-20.14,1.1c-27.43,13.25-50.21,32.78-71.44,54.28-5.11,5.18-6.78,12.06-9.37,18.49C216.82,180.9,201,216,188.54,252.14c-10.67,30.88-24.27,60.51-35.27,91.18-1.91,5.33-5.88,6.06-9.81,6.13-18,.32-36,.41-54,0-7.57-.17-8.31-2.67-5.44-9.75,9.63-23.79,19-47.71,28.5-71.53,7.08-17.69,14.31-35.32,21.51-53,9.29-22.79,18.68-45.55,27.91-68.37,9.33-23.07,18.52-46.2,27.77-69.31.91-2.26,3.05-4.61.69-6.91-1.86-1.8-4.28-.58-6.37.14-23.54,8.12-47.82,14-70.85,23.68-15.2,6.41-30.7,12-42.51,24.41-6.56,6.87-10.3,14.79-10,24.16.45,12.51,8.79,21.75,21.81,23.84,6.89,1.11,9.83,4.23,9.73,11.09q-.27,19.83,0,39.67c.09,7-2.92,9.67-9.79,8.89-32.48-3.69-59.29-16.62-74.73-47C1.87,168-1.25,155.45.47,146.25Z"/><path class="cls-1" d="M615.38,408.07c0,8.66.24,17.33,0,26-.59,17.85-11.9,31.24-29.62,34.33-12.77,2.23-25.48,2.06-37.32-4.73-11-6.29-16.53-16.08-17-28.15-.7-18.8-.27-37.65-.34-56.47,0-3.47,1.3-5.24,5.08-5a83.39,83.39,0,0,0,10,0c4.11-.19,5.62,1.71,5.59,5.71q-.17,23.74,0,47.48c0,5.29,0,10.57,3.28,15.34s7.55,8,13.36,8.39,11.54,1,17-2.37,8.57-7.92,9-14.06c1.21-17.3.33-34.64.51-52,.09-8.53,0-8.59,8.71-8.48,12.85.16,12-2.39,12,11.93q0,11,0,22Z"/><path class="cls-1" d="M894,465.34q0-44.31.06-88.62c1.8-2.31,4.37-1.85,6.79-1.86l59.08-.18a94.6,94.6,0,0,1-.13,17.47c-10.63-.12-21.27-.39-31.9-.32-15.42.11-13.7-2.71-13.94,14.18-.06,4.43,1.49,6.05,6.13,6.07,13.27.05,26.56-1,39.8.64q0,7.31.06,14.62c-4.51,2.08-9.31,1.56-14,1.57-9,0-17.94,0-26.91,0-2.85,0-5.06.73-5.14,4q-.17,6.72.06,13.45c.1,3.21,1.8,4.55,5.18,4.51,13.61-.18,27.23-.15,40.85-.19q0,8.41,0,16.8l-59.27-.06C898.32,467.39,895.72,467.85,894,465.34Z"/><path class="cls-1" d="M360.42,391.57q0-8.44.1-16.88c20.81.06,41.62.22,62.43.14,14.61-.05,11.18.78,11.7,12,.16,3.57-1.42,4.81-4.66,4.79-5.16,0-10.32,0-15.49,0-6.62,0-7.06.43-7.06,7.06,0,18.32.07,36.63,0,55-.08,15,2.74,13.62-14.38,13.8-4.07,0-5.59-1.43-5.49-5.58.24-10,.09-20,.09-30,0-11.49,0-23,0-34.47,0-4-1.19-6.09-5.78-5.88C374.75,391.88,367.58,391.6,360.42,391.57Z"/><path class="cls-1" d="M793.27,433.22c-2.7-6.18-7.46-9.92-13.16-13.5,2.24-1.78,4.22-3.24,6-4.84a18.52,18.52,0,0,0,6.46-11.46c2.3-15.58-5.86-26.44-21.52-27.9-16.12-1.52-32.28-.32-48.42-.68-3.86-.08-5,1.9-5,5.66.12,27.14.16,54.26,0,81.39,0,4.8,2.38,5.54,6.18,5.52,14.5,0,29,0,43.46-.1a55.83,55.83,0,0,0,8.9-1C791,463.76,799.35,447.1,793.27,433.22Zm-41.9-41.1c3.84,0,7.66-.14,11.48.06,5.92.3,10.5,4.82,10.38,9.94s-4.48,9.18-10.32,9.48c-3.5.18-7,0-10.5,0v0c-3.16,0-6.34-.2-9.48.06-3.66.3-5-1.2-5.24-4.78C736.78,392.12,736.72,392.12,751.38,392.12ZM768.65,449a17.51,17.51,0,0,1-7.26,1.38c-6.14,0-12.3-.2-18.42.1-4.1.22-5.32-1.7-5.24-5.28.42-19.38-3.06-15.48,15.34-15.5,4.48,0,9-.34,13.4.08,4.88.46,7.64,3.6,8.22,8.5C775.33,443.68,773.47,446.78,768.65,449Z"/></g></g></svg>