<svg xmlns="http://www.w3.org/2000/svg" viewBox="0 0 300.39 139.07"><defs><style>.cls-1{fill:#fff;}</style></defs><title>newtube-logo</title><g id="Layer_2" data-name="Layer 2"><g id="Layer_1-2" data-name="Layer 1"><path class="cls-1" d="M299.7,68.42a14.93,14.93,0,0,0-4.1-3.12c-2.19-1-3.4-.29-4.55,1.46a42.19,42.19,0,0,1-3.45,4.79c-4,4.52-8.77,7.75-15,8.14-2.56.16-3.22-.74-1.82-2.87a95.34,95.34,0,0,0,8.15-15.65c1.35-3.17,2.49-6.42,3.61-9.67a62.91,62.91,0,0,0,2.41-8c.65-3.23,2-6.27,2.2-9.62.1-2-.49-2.7-2.63-2.79-5-.22-9.69,1.4-14.58,1.58a1.3,1.3,0,0,0-1.38.87c-1.05,3.79-2.27,7.56-3,11.41-.47,2.37-1.49,4.51-2.16,6.77-1,3.43-2.46,6.76-3.77,10.11a3.86,3.86,0,0,1-3.45,2.88,13.84,13.84,0,0,0-5.37,1.74c-4.8,3-6,7.73-4.62,12.52,1,3.71-1,4.83-3,6.6-.9.81-2.12.91-3.07,1.59-1.21.87-2.64,1.52-3.91.54s-.68-2.48-.52-3.77a39.48,39.48,0,0,1,1.74-6.39c1.05-3.55,2.72-6.82,4-10.24,1.13-3,2.83-5.79,3.47-8.85.76-3.62,2.31-6.88,3.58-10.28,1.54-4.11,3.38-8.11,5-12.19.79-2,.17-2.94-1.85-3-5.17,0-10.34,0-15.5,0a3.3,3.3,0,0,0-3.42,2c-1.5,3.69-3,7.37-4.5,11.08-2.67,6.7-5,13.53-8,20.09a82.11,82.11,0,0,1-12.63,19,8.57,8.57,0,0,1-5.2,3.21c-2.87.45-4.28-1-3.73-3.85,1.74-9,6.07-17.18,9.27-25.7,3-7.84,6.35-15.5,9.52-23.26.65-1.6.2-2.59-1.72-2.59-5.25,0-10.5,0-15.75,0a3.5,3.5,0,0,0-3.71,2.61c-1.84,5.29-3.79,10.55-5.94,15.72-1.58,3.81-3.29,7.55-4.76,11.4-.46,1.21-.64,2.65-1.36,3.63-4.09,5.56-7.91,11.33-13.65,15.5-8.62,6.26-17.74,10.32-28.71,8A10.62,10.62,0,0,1,134,82.45c-.89-4,.14-5.76,3.3-5.28,5.6.86,11.07.27,16.61-.55A26.06,26.06,0,0,0,171,66.89c4.71-5.91,7.22-12.81,6.43-20.64a12.42,12.42,0,0,0-3-7c-4.68-5.61-11-7.68-17.94-7.74-12.54-.11-22.52,5.32-30.32,15-6.3,7.84-9.78,16.89-11.65,26.59a32.11,32.11,0,0,0,0,13.17c2.14,9.27,8.41,15,17.59,16.5,15.37,2.56,29.52-.73,41.81-10.73,2.78-2.27,3.55-2.08,4.32,1.36,1.06,4.73,4,7.77,8.34,9.59,1.83.76,3.8.49,5.66.56a21.49,21.49,0,0,0,11.63-2.54,42.66,42.66,0,0,0,10-7.74c1.87,3.24,3.23,6.52,6.5,8.28,6.4,3.44,13.25,3.13,19.84,1.43a37.93,37.93,0,0,0,18.57-11.39c1.71-1.87,3.71-2,5.89-1.07a9.37,9.37,0,0,0,2.62.74c5.54.53,10.74-1,15.55-3.3a40.59,40.59,0,0,0,16.79-15.71C300.53,71,300.69,69.42,299.7,68.42Zm-159.55-7L153.9,48.61c2.77-.58,4.65,1.29,3.73,4.07-1.73,5.25-3.94,10.28-9.81,12.39a17.52,17.52,0,0,1-4.34.54C137.94,65.64,137.71,65.5,140.15,61.38Z"/><path class="cls-1" d="M.14,43.3C0,30.51,6.58,23.33,15.82,17.86,22.75,13.75,30.27,11,37.91,8.61s15.33-5,23-7.5C61.28,1,61.58.62,62,.51c1.79-.54,3.31-1.14,4.88,1C70.37,6.43,74.33,11,78.09,15.72c1.09,1.36,2.12.79,3.09,0A87.1,87.1,0,0,1,95.47,5.38c5.37-2.93,11-4.81,17.16-3.88,3.54.53,6,2.53,7.8,6.05,3.86,7.42,1.16,14.12-1.22,20.93-2,5.83-4.4,11.56-6.69,17.3-2.14,5.36-4.42,10.67-6.58,16-2.28,5.65-4.46,11.34-6.74,17s-4.62,11-6.72,16.5c-1.8,4.75-4.19,9.31-4.14,14.67a6.67,6.67,0,0,0,3.86,6.37c2.65,1.46,2.7,2,1.51,4.7-1.31,3-2.5,6.11-3.64,9.21-1,2.63-1.91,2.95-4.47,1.86a35.26,35.26,0,0,1-10.31-6.29c-5.83-5.32-6.76-12.12-6.2-19.42.49-6.42,3.49-12,5.77-17.87C77,83,78.81,77.42,81.14,72q2.87-6.7,5.58-13.47c2.21-5.51,4.36-11,6.53-16.57,1.78-4.54,3.53-9.09,5.36-13.61a10.4,10.4,0,0,0,.59-1.87c.38-1.89,1.06-4-.85-5.29s-4.12-.56-6,.33c-8.12,3.92-14.87,9.71-21.15,16.07-1.51,1.53-2,3.57-2.78,5.48-4.25,10.52-8.93,20.9-12.63,31.62-3.16,9.14-7.19,17.92-10.44,27a2.69,2.69,0,0,1-2.91,1.82c-5.33.1-10.66.12-16,0-2.24-.05-2.46-.79-1.61-2.89,2.85-7,5.61-14.13,8.44-21.18,2.1-5.24,4.24-10.46,6.37-15.68,2.75-6.75,5.53-13.49,8.26-20.25S53.43,29.8,56.17,23c.27-.67.9-1.37.2-2s-1.27-.17-1.89,0c-7,2.41-14.16,4.14-21,7-4.5,1.9-9.09,3.56-12.59,7.23A9.6,9.6,0,0,0,18,42.35a7.22,7.22,0,0,0,6.46,7.06c2,.33,2.91,1.25,2.88,3.28q-.08,5.87,0,11.75c0,2.06-.86,2.86-2.9,2.63C14.8,66,6.86,62.14,2.29,53.14.55,49.73-.37,46,.14,43.3Z"/><path class="cls-1" d="M182.22,120.83c0,2.57.07,5.13,0,7.7a10.23,10.23,0,0,1-8.77,10.17c-3.78.66-7.54.61-11-1.4a9.56,9.56,0,0,1-5-8.34c-.21-5.57-.08-11.15-.1-16.72,0-1,.38-1.55,1.5-1.47a24.69,24.69,0,0,0,3,0c1.22-.06,1.66.5,1.66,1.69q0,7,0,14.06a7.68,7.68,0,0,0,1,4.54,5.11,5.11,0,0,0,4,2.49c1.71.13,3.42.29,5-.7a5.17,5.17,0,0,0,2.66-4.16c.36-5.12.1-10.26.15-15.38,0-2.53,0-2.54,2.58-2.51,3.8,0,3.56-.71,3.55,3.53q0,3.26,0,6.51Z"/><path class="cls-1" d="M264.73,137.79q0-13.12,0-26.24c.53-.68,1.29-.55,2-.55l17.49-.05a28,28,0,0,1,0,5.17c-3.15,0-6.3-.12-9.45-.09-4.57,0-4.06-.8-4.13,4.2,0,1.31.44,1.79,1.82,1.8,3.93,0,7.86-.29,11.79.19q0,2.17,0,4.33a9.58,9.58,0,0,1-4.16.46c-2.66,0-5.31,0-8,0-.84,0-1.5.22-1.52,1.18q-.05,2,0,4c0,.95.53,1.35,1.53,1.33,4-.05,8.06,0,12.1-.06q0,2.49,0,5l-17.55,0C266,138.4,265.23,138.53,264.73,137.79Z"/><path class="cls-1" d="M106.72,115.95q0-2.5,0-5c6.16,0,12.32.07,18.49,0,4.33,0,3.31.23,3.46,3.56,0,1.06-.42,1.42-1.38,1.42h-4.59c-2,0-2.09.13-2.09,2.09,0,5.42,0,10.85,0,16.27,0,4.45.81,4-4.26,4.09-1.21,0-1.65-.42-1.63-1.65.07-3,0-5.92,0-8.87,0-3.4,0-6.8,0-10.21,0-1.19-.35-1.8-1.71-1.74C111,116,108.84,116,106.72,115.95Z"/><path class="cls-1" d="M234.89,128.28a9.07,9.07,0,0,0-3.9-4c.66-.53,1.25-1,1.79-1.43a5.48,5.48,0,0,0,1.91-3.39c.68-4.61-1.74-7.83-6.37-8.26s-9.56-.09-14.34-.2c-1.14,0-1.49.56-1.48,1.68,0,8,0,16.07,0,24.1,0,1.42.7,1.64,1.83,1.63,4.29,0,8.58,0,12.87,0a16.53,16.53,0,0,0,2.64-.29A7.09,7.09,0,0,0,234.89,128.28Zm-12.41-12.17c1.14,0,2.27,0,3.4,0a3.08,3.08,0,0,1,3.07,2.94,3,3,0,0,1-3.06,2.81c-1,.05-2.07,0-3.11,0h0c-.94,0-1.88-.06-2.81,0-1.08.09-1.49-.36-1.55-1.42C218.16,116.11,218.15,116.11,222.49,116.11ZM227.6,133a5.18,5.18,0,0,1-2.15.41c-1.82,0-3.64-.06-5.45,0-1.21.07-1.58-.5-1.55-1.56.12-5.74-.91-4.58,4.54-4.59,1.33,0,2.66-.1,4,0a2.58,2.58,0,0,1,2.43,2.52A2.72,2.72,0,0,1,227.6,133Z"/></g></g></svg>